Coordinates
version=1
nRows=11
nColumns=46
inDegrees=yes

Units are S.I. units (second, meters, Newtons, ...)
Angles are in degrees.

endheader
time	pelvis_tilt	pelvis_list	pelvis_rotation	pelvis_tx	pelvis_ty	pelvis_tz	bb_angle	bb_tx	bb_ty	bb_tz	hip_flexion_r	hip_adduction_r	hip_rotation_r	knee_angle_r	knee_angle_r_beta	ankle_angle_r	subtalar_angle_r	mtp_angle_r	crank_angle_r	hip_flexion_l	hip_adduction_l	hip_rotation_l	knee_angle_l	knee_angle_l_beta	ankle_angle_l	subtalar_angle_l	mtp_angle_l	crank_angle_l	lumbar_extension	lumbar_bending	lumbar_rotation	arm_flex_r	arm_add_r	arm_rot_r	elbow_flex_r	pro_sup_r	wrist_flex_r	wrist_dev_r	arm_flex_l	arm_add_l	arm_rot_l	elbow_flex_l	pro_sup_l	wrist_flex_l	wrist_dev_l
      2.50000000	    -11.86949464	      5.28303398	     -0.64888806	      0.18236890	      1.14121163	     -0.21231506	      0.00000000	      0.50000000	      0.00000000	      0.25000000	     40.95865314	     -4.91527598	      9.05002283	     29.86610660	      0.52126189	     -7.65353323	    -12.13108871	      0.00000000	      0.00000000	     65.88727563	      3.12015300	      6.49605576	    101.73780870	      1.77565974	     -4.71255675	     -9.08352516	      0.00000000	      0.00000000	    -65.67066291	     -1.65151191	    -14.11396243	     86.32147153	     -8.79984589	     49.67466392	     59.76066963	     33.83661420	      0.00000000	      0.00000000	     78.89936793	    -30.46090799	     22.85265219	     63.88310281	     52.27888686	      0.00000000	      0.00000000
      2.50500000	    -12.13338298	      5.75973166	      0.05848815	      0.18347096	      1.14169186	     -0.21020835	      0.00000000	      0.50000000	      0.00000000	      0.25000000	     39.37166252	     -5.73765975	      8.67990985	     27.44928523	      0.47908040	     -9.12865074	    -12.24330370	      0.00000000	      0.00000000	     67.32455028	      3.58145060	      6.42204995	    102.85217461	      1.79510909	     -3.47720859	     -8.29590467	      0.00000000	      0.00000000	    -65.39614012	     -2.12554768	    -15.13557781	     85.63513883	     -8.83614529	     49.47411865	     59.36127791	     34.10085329	      0.00000000	      0.00000000	     79.40185820	    -30.60058875	     23.87935575	     63.76723772	     52.34310470	      0.00000000	      0.00000000
      2.51000000	    -12.53707644	      6.34913465	      0.75065809	      0.18465663	      1.14189945	     -0.20830513	      0.00000000	      0.50000000	      0.00000000	      0.25000000	     38.14070396	     -6.75150108	      7.94319375	     25.42802776	      0.44380281	    -10.16881537	    -11.39656155	      0.00000000	      0.00000000	     68.88134530	      4.11706835	      6.20397545	    103.85793149	      1.81266286	     -2.94609892	     -7.95342640	      0.00000000	      0.00000000	    -64.96606880	     -2.71675520	    -16.14736105	     84.94924499	     -9.03298395	     49.53621415	     59.04578394	     34.17451097	      0.00000000	      0.00000000	     79.51658183	    -30.40392782	     24.37066927	     63.81505339	     52.39581440	      0.00000000	      0.00000000
      2.51500000	    -12.76830391	      6.93448744	      1.62959856	      0.18608281	      1.14275315	     -0.20588392	      0.00000000	      0.50000000	      0.00000000	      0.25000000	     36.55994560	     -7.80319120	      7.01089204	     23.27975379	      0.40630835	    -11.24747517	    -10.80234913	      0.00000000	      0.00000000	     70.14878641	      4.69960329	      6.01415201	    104.60770112	      1.82574881	     -2.02452752	     -7.17725133	      0.00000000	      0.00000000	    -64.81714702	     -3.21796643	    -17.32831898	     84.17092371	     -8.86551418	     49.00797194	     58.44718606	     34.52396437	      0.00000000	      0.00000000	     80.15085015	    -30.43104013	     25.55160190	     63.53115029	     52.43986865	      0.00000000	      0.00000000
      2.52000000	    -13.28369846	      7.25532845	      1.96435029	      0.18715580	      1.14238628	     -0.20475567	      0.00000000	      0.50000000	      0.00000000	      0.25000000	     35.60417854	     -8.43585259	      6.17952396	     21.51479649	      0.37550404	    -12.18533297	     -9.64145194	      0.00000000	      0.00000000	     71.85767864	      4.81354960	      5.81483802	    105.54547646	      1.84211607	     -1.41851860	     -6.82806355	      0.00000000	      0.00000000	    -64.25394542	     -3.90789188	    -17.97327255	     83.61068002	     -9.12674220	     49.13454666	     58.12375584	     34.57537532	      0.00000000	      0.00000000	     80.18741429	    -30.12107913	     25.86574453	     63.60948662	     52.47838219	      0.00000000	      0.00000000
      2.52500000	    -13.78492525	      7.62348092	      2.46220426	      0.18809489	      1.14241273	     -0.20283447	      0.00000000	      0.50000000	      0.00000000	      0.25000000	     34.60679608	     -9.10794297	      5.28810723	     19.79767342	      0.34553459	    -13.12113086	     -8.54097840	      0.00000000	      0.00000000	     73.50590064	      4.95572552	      5.63968524	    106.21964133	      1.85388247	     -0.85133513	     -6.23316631	      0.00000000	      0.00000000	    -63.83199213	     -4.56244771	    -18.64733731	     83.13131446	     -9.37458897	     49.25999291	     57.74593288	     34.59736509	      0.00000000	      0.00000000	     80.42491630	    -29.79712779	     26.19941511	     63.68815797	     52.51663627	      0.00000000	      0.00000000
      2.53000000	    -14.04650929	      7.81310920	      2.96493440	      0.18900730	      1.14275829	     -0.20084766	      0.00000000	      0.50000000	      0.00000000	      0.25000000	     33.37603665	     -9.61614747	      4.10841453	     18.20509712	      0.31773889	    -13.90343665	     -7.35615101	      0.00000000	      0.00000000	     74.87418440	      4.90137315	      5.61193607	    106.79246259	      1.86388009	     -0.09123925	     -4.99225711	      0.00000000	      0.00000000	    -63.59571307	     -5.12073623	    -18.97845058	     82.92820909	     -9.70864958	     49.45220545	     56.69281028	     35.43556877	      0.00000000	      0.00000000	     81.57784430	    -29.81400586	     28.82680133	     62.63828713	     52.53414274	      0.00000000	      0.00000000
      2.53500000	    -14.47271454	      8.01844967	      3.37433774	      0.19004979	      1.14282736	     -0.19901690	      0.00000000	      0.50000000	      0.00000000	      0.25000000	     32.42852425	    -10.04973229	      3.08683939	     16.85015099	      0.29409061	    -14.66444146	     -6.24569658	      0.00000000	      0.00000000	     76.35491526	      4.86495413	      5.51145470	    107.21482785	      1.87125175	      0.31463664	     -4.45865556	      0.00000000	      0.00000000	    -63.22581613	     -5.73301421	    -19.46887955	     82.51409801	     -9.87749659	     49.53141191	     56.40197100	     35.50664650	      0.00000000	      0.00000000	     81.67385285	    -29.40530408	     29.14290701	     62.77972864	     52.57623873	      0.00000000	      0.00000000
      2.54000000	    -14.85681797	      8.04400411	      3.79472998	      0.19100197	      1.14293731	     -0.19734181	      0.00000000	      0.50000000	      0.00000000	      0.25000000	     31.50884729	    -10.32492905	      1.92828489	     15.66348351	      0.27337936	    -15.21764186	     -5.04516645	      0.00000000	      0.00000000	     77.77141826	      4.74106006	      5.62399872	    107.52570539	      1.87667759	      0.81590156	     -3.47510465	      0.00000000	      0.00000000	    -62.89106617	     -6.14281977	    -19.70205561	     82.25825471	     -9.98263936	     49.43988793	     55.78133764	     35.65761930	      0.00000000	      0.00000000	     81.98769940	    -29.05581322	     29.83433121	     62.61881758	     52.59223789	      0.00000000	      0.00000000
      2.54500000	    -15.33011636	      8.15420793	      4.08781348	      0.19164120	      1.14289276	     -0.19558975	      0.00000000	      0.50000000	      0.00000000	      0.25000000	     30.85112700	    -10.56211068	      1.19028059	     14.72401688	      0.25698257	    -15.78353972	     -4.22887619	      0.00000000	      0.00000000	     79.24428708	      4.54107959	      5.55818092	    107.62359607	      1.87838610	      0.90570673	     -3.00035929	      0.00000000	      0.00000000	    -62.56080616	     -6.76476891	    -20.03935563	     82.03727918	    -10.11900856	     49.41506848	     55.46461489	     35.67278296	      0.00000000	      0.00000000	     82.29316309	    -28.72318600	     30.12581390	     62.71218587	     52.62457981	      0.00000000	      0.00000000
      2.55000000	    -15.82441050	      8.17677658	      4.38060533	      0.19214711	      1.14286156	     -0.19427331	      0.00000000	      0.50000000	      0.00000000	      0.25000000	     30.31592423	    -10.72069630	      0.41710228	     13.99189850	      0.24420470	    -16.21743926	     -3.44874544	      0.00000000	      0.00000000	     80.68218239	      4.38548932	      5.59878684	    107.56897165	      1.87743273	      1.02352685	     -2.35503687	      0.00000000	      0.00000000	    -62.16259501	     -7.27009321	    -20.15511784	     81.91185517	    -10.35524284	     49.26089291	     55.00369271	     35.66402845	      0.00000000	      0.00000000	     82.53256642	    -28.33549986	     30.66180182	     62.74270847	     52.67345220	      0.00000000	      0.00000000
